<mxfile host="app.diagrams.net" agent="Mozilla/5.0 (Windows NT 10.0; Win64; x64; rv:139.0) Gecko/20100101 Firefox/139.0" version="27.1.3">
  <diagram name="Trang-1" id="y71gIVKSMgTk70VA-sXu">
    <mxGraphModel dx="1426" dy="759" grid="1" gridSize="10" guides="1" tooltips="1" connect="1" arrows="1" fold="1" page="1" pageScale="1" pageWidth="827" pageHeight="1169" math="0" shadow="0">
      <root>
        <mxCell id="0" />
        <mxCell id="1" parent="0" />
        <mxCell id="UHD8-62cej7GR82FmaJd-1" value="&#xa;Internet&#xa;&#xa;" style="shape=mxgraph.cisco.storage.cloud;sketch=0;html=1;pointerEvents=1;dashed=0;strokeWidth=2;verticalLabelPosition=middle;verticalAlign=middle;align=center;outlineConnect=0;labelPosition=center;fontStyle=1" vertex="1" parent="1">
          <mxGeometry x="310" y="90" width="186" height="106" as="geometry" />
        </mxCell>
        <mxCell id="UHD8-62cej7GR82FmaJd-2" value="" style="endArrow=none;html=1;rounded=0;exitX=0.5;exitY=0;exitDx=0;exitDy=0;entryX=0.89;entryY=0.87;entryDx=0;entryDy=0;entryPerimeter=0;" edge="1" parent="1" source="UHD8-62cej7GR82FmaJd-3" target="UHD8-62cej7GR82FmaJd-1">
          <mxGeometry width="50" height="50" relative="1" as="geometry">
            <mxPoint x="515" y="268" as="sourcePoint" />
            <mxPoint x="312.5400000000004" y="80.22000000000003" as="targetPoint" />
          </mxGeometry>
        </mxCell>
        <mxCell id="UHD8-62cej7GR82FmaJd-3" value="enp5s0" style="rounded=0;whiteSpace=wrap;html=1;strokeWidth=2;" vertex="1" parent="1">
          <mxGeometry x="501" y="280" width="120" height="60" as="geometry" />
        </mxCell>
        <mxCell id="UHD8-62cej7GR82FmaJd-4" value="Card vật lý" style="text;html=1;align=center;verticalAlign=middle;whiteSpace=wrap;rounded=0;" vertex="1" parent="1">
          <mxGeometry x="660" y="295" width="60" height="30" as="geometry" />
        </mxCell>
        <mxCell id="UHD8-62cej7GR82FmaJd-5" value="" style="endArrow=none;dashed=1;html=1;rounded=0;entryX=1;entryY=0.5;entryDx=0;entryDy=0;exitX=0;exitY=0.5;exitDx=0;exitDy=0;" edge="1" parent="1" source="UHD8-62cej7GR82FmaJd-4" target="UHD8-62cej7GR82FmaJd-3">
          <mxGeometry width="50" height="50" relative="1" as="geometry">
            <mxPoint x="315" y="348" as="sourcePoint" />
            <mxPoint x="365" y="298" as="targetPoint" />
          </mxGeometry>
        </mxCell>
        <mxCell id="UHD8-62cej7GR82FmaJd-6" value="" style="endArrow=none;html=1;rounded=0;entryX=0.5;entryY=1;entryDx=0;entryDy=0;exitX=0.5;exitY=0;exitDx=0;exitDy=0;exitPerimeter=0;strokeWidth=2;" edge="1" parent="1" source="UHD8-62cej7GR82FmaJd-14" target="UHD8-62cej7GR82FmaJd-3">
          <mxGeometry width="50" height="50" relative="1" as="geometry">
            <mxPoint x="329" y="458" as="sourcePoint" />
            <mxPoint x="570" y="458" as="targetPoint" />
          </mxGeometry>
        </mxCell>
        <mxCell id="UHD8-62cej7GR82FmaJd-7" value="WAN-DHCP" style="text;html=1;align=center;verticalAlign=middle;whiteSpace=wrap;rounded=0;" vertex="1" parent="1">
          <mxGeometry x="501" y="410" width="80" height="30" as="geometry" />
        </mxCell>
        <mxCell id="UHD8-62cej7GR82FmaJd-8" value="WAN-DHCP" style="text;html=1;align=center;verticalAlign=middle;whiteSpace=wrap;rounded=0;" vertex="1" parent="1">
          <mxGeometry x="600" y="410" width="80" height="30" as="geometry" />
        </mxCell>
        <mxCell id="UHD8-62cej7GR82FmaJd-9" value="" style="endArrow=none;html=1;rounded=0;entryX=0.5;entryY=1;entryDx=0;entryDy=0;exitX=0.5;exitY=0;exitDx=0;exitDy=0;exitPerimeter=0;strokeWidth=2;" edge="1" parent="1" source="UHD8-62cej7GR82FmaJd-15" target="UHD8-62cej7GR82FmaJd-3">
          <mxGeometry width="50" height="50" relative="1" as="geometry">
            <mxPoint x="681.5" y="538" as="sourcePoint" />
            <mxPoint x="561.5" y="340" as="targetPoint" />
          </mxGeometry>
        </mxCell>
        <mxCell id="UHD8-62cej7GR82FmaJd-10" value="PF-SOC" style="shape=mxgraph.cisco.routers.router;sketch=0;html=1;pointerEvents=1;dashed=0;fillColor=#036897;strokeColor=#ffffff;strokeWidth=2;verticalLabelPosition=bottom;verticalAlign=top;align=center;outlineConnect=0;" vertex="1" parent="1">
          <mxGeometry x="470" y="740" width="78" height="53" as="geometry" />
        </mxCell>
        <mxCell id="UHD8-62cej7GR82FmaJd-11" value="22.22.22.2/29" style="text;html=1;align=center;verticalAlign=middle;whiteSpace=wrap;rounded=0;" vertex="1" parent="1">
          <mxGeometry x="487" y="810" width="60" height="30" as="geometry" />
        </mxCell>
        <mxCell id="UHD8-62cej7GR82FmaJd-12" value="" style="endArrow=none;dashed=1;html=1;dashPattern=1 3;strokeWidth=2;rounded=0;exitX=0.5;exitY=0;exitDx=0;exitDy=0;exitPerimeter=0;entryX=0.12;entryY=0.9;entryDx=0;entryDy=0;entryPerimeter=0;" edge="1" parent="1" source="UHD8-62cej7GR82FmaJd-10" target="UHD8-62cej7GR82FmaJd-15">
          <mxGeometry width="50" height="50" relative="1" as="geometry">
            <mxPoint x="630" y="518" as="sourcePoint" />
            <mxPoint x="719" y="489.5" as="targetPoint" />
          </mxGeometry>
        </mxCell>
        <mxCell id="UHD8-62cej7GR82FmaJd-13" value="&lt;div&gt;&lt;span&gt;WAN-DHCP-192.168.1.0/24&lt;/span&gt;&lt;/div&gt;&lt;div&gt;&lt;span&gt;&lt;br&gt;&lt;/span&gt;&lt;/div&gt;&lt;div&gt;&lt;span&gt;DMZ-172.16.10.0/24&lt;/span&gt;&lt;/div&gt;&lt;div&gt;&lt;span&gt;&lt;br&gt;&lt;/span&gt;&lt;/div&gt;&lt;div&gt;&lt;span&gt;SYNC-11.11.11.0/30&lt;/span&gt;&lt;/div&gt;&lt;div&gt;&lt;br&gt;&lt;/div&gt;&lt;div&gt;SOC-22.22.22.0/29&lt;/div&gt;&lt;div&gt;&lt;br&gt;&lt;/div&gt;&lt;div&gt;PREWAN-33.33.33.0/29&lt;/div&gt;&lt;div&gt;&lt;br&gt;&lt;/div&gt;&lt;div&gt;&lt;br&gt;&lt;/div&gt;&lt;div&gt;&lt;span&gt;&lt;br&gt;&lt;/span&gt;&lt;/div&gt;" style="text;html=1;align=left;verticalAlign=top;whiteSpace=wrap;rounded=0;fontStyle=1;labelPosition=center;verticalLabelPosition=middle;fontSize=14;" vertex="1" parent="1">
          <mxGeometry x="20" y="280" width="220" height="193" as="geometry" />
        </mxCell>
        <mxCell id="UHD8-62cej7GR82FmaJd-14" value="&lt;div&gt;PF-MATER&lt;/div&gt;" style="shape=mxgraph.cisco.routers.router;sketch=0;html=1;pointerEvents=1;dashed=0;fillColor=#036897;strokeColor=#ffffff;strokeWidth=2;verticalLabelPosition=bottom;verticalAlign=top;align=center;outlineConnect=0;" vertex="1" parent="1">
          <mxGeometry x="290" y="561" width="78" height="53" as="geometry" />
        </mxCell>
        <mxCell id="UHD8-62cej7GR82FmaJd-15" value="PF-BACK" style="shape=mxgraph.cisco.routers.router;sketch=0;html=1;pointerEvents=1;dashed=0;fillColor=#036897;strokeColor=#ffffff;strokeWidth=2;verticalLabelPosition=bottom;verticalAlign=top;align=center;outlineConnect=0;" vertex="1" parent="1">
          <mxGeometry x="655" y="558" width="78" height="53" as="geometry" />
        </mxCell>
        <mxCell id="UHD8-62cej7GR82FmaJd-16" value="22.22.22.1/29" style="text;html=1;align=center;verticalAlign=middle;whiteSpace=wrap;rounded=0;" vertex="1" parent="1">
          <mxGeometry x="330" y="630" width="60" height="30" as="geometry" />
        </mxCell>
        <mxCell id="UHD8-62cej7GR82FmaJd-17" value="&lt;div&gt;22.22.22.3/29&lt;/div&gt;" style="text;html=1;align=center;verticalAlign=middle;whiteSpace=wrap;rounded=0;" vertex="1" parent="1">
          <mxGeometry x="630" y="640" width="60" height="30" as="geometry" />
        </mxCell>
        <mxCell id="UHD8-62cej7GR82FmaJd-18" value="" style="endArrow=none;dashed=1;html=1;dashPattern=1 3;strokeWidth=2;rounded=0;exitX=1;exitY=0.5;exitDx=0;exitDy=0;exitPerimeter=0;entryX=0;entryY=0.5;entryDx=0;entryDy=0;entryPerimeter=0;" edge="1" parent="1" source="UHD8-62cej7GR82FmaJd-14" target="UHD8-62cej7GR82FmaJd-15">
          <mxGeometry width="50" height="50" relative="1" as="geometry">
            <mxPoint x="510" y="568" as="sourcePoint" />
            <mxPoint x="560" y="518" as="targetPoint" />
          </mxGeometry>
        </mxCell>
        <mxCell id="UHD8-62cej7GR82FmaJd-19" value="" style="endArrow=none;dashed=1;html=1;dashPattern=1 3;strokeWidth=2;rounded=0;exitX=0.88;exitY=0.9;exitDx=0;exitDy=0;exitPerimeter=0;entryX=0.5;entryY=0;entryDx=0;entryDy=0;entryPerimeter=0;" edge="1" parent="1" source="UHD8-62cej7GR82FmaJd-14" target="UHD8-62cej7GR82FmaJd-10">
          <mxGeometry width="50" height="50" relative="1" as="geometry">
            <mxPoint x="510" y="568" as="sourcePoint" />
            <mxPoint x="560" y="518" as="targetPoint" />
          </mxGeometry>
        </mxCell>
        <mxCell id="UHD8-62cej7GR82FmaJd-20" value="&lt;div&gt;11.11.11.1/30&lt;/div&gt;" style="text;html=1;align=center;verticalAlign=middle;whiteSpace=wrap;rounded=0;" vertex="1" parent="1">
          <mxGeometry x="380" y="588" width="68" height="30" as="geometry" />
        </mxCell>
        <mxCell id="UHD8-62cej7GR82FmaJd-21" value="&lt;div&gt;11.11.11.2/30&lt;/div&gt;" style="text;html=1;align=center;verticalAlign=middle;whiteSpace=wrap;rounded=0;" vertex="1" parent="1">
          <mxGeometry x="575" y="588" width="68" height="30" as="geometry" />
        </mxCell>
        <mxCell id="UHD8-62cej7GR82FmaJd-22" value="&lt;div&gt;Cấu hình HA CARP kết hợp&amp;nbsp;&lt;/div&gt;Policy-Based Routing &amp;amp; Multi-WAN" style="text;html=1;align=center;verticalAlign=middle;whiteSpace=wrap;rounded=0;fontStyle=1" vertex="1" parent="1">
          <mxGeometry x="467" y="196" width="188" height="90" as="geometry" />
        </mxCell>
        <mxCell id="UHD8-62cej7GR82FmaJd-23" value="&lt;div&gt;&lt;span&gt;Virtual IP:&lt;/span&gt;&lt;/div&gt;&lt;div&gt;&lt;span&gt;WAN: 192.168.1.254/24&lt;/span&gt;&lt;/div&gt;&lt;div&gt;&lt;span&gt;&lt;br&gt;&lt;/span&gt;&lt;/div&gt;&lt;div&gt;&lt;span&gt;DMZ: 172.16.10.254/24&lt;/span&gt;&lt;/div&gt;&lt;div&gt;&lt;span&gt;&lt;br&gt;&lt;/span&gt;&lt;/div&gt;&lt;div&gt;SOC: 22.22.22.5/29&lt;/div&gt;&lt;div&gt;&lt;br&gt;&lt;/div&gt;&lt;div&gt;PREWAN-33.33.33.5/29&lt;/div&gt;&lt;div&gt;&lt;span&gt;&lt;br&gt;&lt;/span&gt;&lt;/div&gt;" style="text;html=1;align=left;verticalAlign=top;whiteSpace=wrap;rounded=0;fontStyle=1;labelPosition=center;verticalLabelPosition=middle;fontSize=14;" vertex="1" parent="1">
          <mxGeometry x="20" y="496" width="220" height="150" as="geometry" />
        </mxCell>
        <mxCell id="UHD8-62cej7GR82FmaJd-24" value="&lt;div&gt;&lt;span&gt;Gateways:&lt;/span&gt;&lt;/div&gt;&lt;div&gt;&lt;span&gt;WAN: 192.168.1.1, Monitor: 192.168.1.254&lt;/span&gt;&lt;/div&gt;&lt;div&gt;&lt;span&gt;&lt;br&gt;&lt;/span&gt;&lt;/div&gt;&lt;div&gt;&lt;span&gt;DMZ: 172.16.10.254, Monitor: 172.16.10.254&lt;/span&gt;&lt;/div&gt;&lt;div&gt;&lt;span&gt;&lt;br&gt;&lt;/span&gt;&lt;/div&gt;&lt;div&gt;SOC: 22.22.22.2, Monitor: 22.22.22.2&lt;/div&gt;&lt;div&gt;&lt;br&gt;&lt;/div&gt;&lt;div&gt;PREWAN: 33.33.33.1, Monitor: 33.33.33.5&lt;/div&gt;&lt;div&gt;&lt;span&gt;&lt;br&gt;&lt;/span&gt;&lt;/div&gt;" style="text;html=1;align=left;verticalAlign=top;whiteSpace=wrap;rounded=0;fontStyle=1;labelPosition=center;verticalLabelPosition=middle;fontSize=14;" vertex="1" parent="1">
          <mxGeometry x="20" y="678" width="310" height="150" as="geometry" />
        </mxCell>
        <mxCell id="UHD8-62cej7GR82FmaJd-25" value="PRE-WAN" style="shape=mxgraph.cisco.routers.router;sketch=0;html=1;pointerEvents=1;dashed=0;fillColor=#036897;strokeColor=#ffffff;strokeWidth=2;verticalLabelPosition=bottom;verticalAlign=top;align=center;outlineConnect=0;" vertex="1" parent="1">
          <mxGeometry x="496" y="460" width="78" height="53" as="geometry" />
        </mxCell>
        <mxCell id="UHD8-62cej7GR82FmaJd-26" value="" style="endArrow=none;html=1;rounded=0;entryX=0.5;entryY=1;entryDx=0;entryDy=0;exitX=0.5;exitY=0;exitDx=0;exitDy=0;exitPerimeter=0;strokeWidth=2;entryPerimeter=0;" edge="1" parent="1" source="UHD8-62cej7GR82FmaJd-14" target="UHD8-62cej7GR82FmaJd-25">
          <mxGeometry width="50" height="50" relative="1" as="geometry">
            <mxPoint x="460" y="668" as="sourcePoint" />
            <mxPoint x="580" y="470" as="targetPoint" />
          </mxGeometry>
        </mxCell>
        <mxCell id="UHD8-62cej7GR82FmaJd-29" value="" style="endArrow=none;html=1;rounded=0;entryX=0.5;entryY=1;entryDx=0;entryDy=0;exitX=0.5;exitY=0;exitDx=0;exitDy=0;exitPerimeter=0;strokeWidth=2;" edge="1" parent="1" source="UHD8-62cej7GR82FmaJd-25" target="UHD8-62cej7GR82FmaJd-3">
          <mxGeometry width="50" height="50" relative="1" as="geometry">
            <mxPoint x="472" y="578" as="sourcePoint" />
            <mxPoint x="400" y="480" as="targetPoint" />
          </mxGeometry>
        </mxCell>
        <mxCell id="UHD8-62cej7GR82FmaJd-30" value="WAN-DHCP" style="text;html=1;align=center;verticalAlign=middle;whiteSpace=wrap;rounded=0;" vertex="1" parent="1">
          <mxGeometry x="407" y="410" width="80" height="30" as="geometry" />
        </mxCell>
        <mxCell id="UHD8-62cej7GR82FmaJd-31" value="33.33.33.2/29" style="text;html=1;align=center;verticalAlign=middle;whiteSpace=wrap;rounded=0;" vertex="1" parent="1">
          <mxGeometry x="384" y="540" width="60" height="30" as="geometry" />
        </mxCell>
        <mxCell id="UHD8-62cej7GR82FmaJd-32" value="33.33.33.1/29" style="text;html=1;align=center;verticalAlign=middle;whiteSpace=wrap;rounded=0;" vertex="1" parent="1">
          <mxGeometry x="501" y="528" width="60" height="30" as="geometry" />
        </mxCell>
        <mxCell id="UHD8-62cej7GR82FmaJd-34" value="" style="endArrow=none;html=1;rounded=0;entryX=0.5;entryY=1;entryDx=0;entryDy=0;exitX=0.5;exitY=0;exitDx=0;exitDy=0;exitPerimeter=0;strokeWidth=2;entryPerimeter=0;" edge="1" parent="1" source="UHD8-62cej7GR82FmaJd-15" target="UHD8-62cej7GR82FmaJd-25">
          <mxGeometry width="50" height="50" relative="1" as="geometry">
            <mxPoint x="482" y="588" as="sourcePoint" />
            <mxPoint x="410" y="490" as="targetPoint" />
          </mxGeometry>
        </mxCell>
        <mxCell id="UHD8-62cej7GR82FmaJd-35" value="33.33.33.3/29" style="text;html=1;align=center;verticalAlign=middle;whiteSpace=wrap;rounded=0;" vertex="1" parent="1">
          <mxGeometry x="583" y="540" width="60" height="30" as="geometry" />
        </mxCell>
      </root>
    </mxGraphModel>
  </diagram>
</mxfile>
